# xmcd
#
# Track frame offsets:
#	150
#	9816
#	25716
#	39730
#	58329
#	67137
#	83712
#	98187
#	109615
#	122290
#
# Disc length: 1816 seconds
#
# Revision: 1
# Processed by: cddbd v1.5.1PL0 Copyright (c) Steve Scherf et al.
# Submitted via: audiograbber 1.83.01
#
DISCID=7607160a
DTITLE=Johnny Sanders - Wonderfull Christmas Time
DYEAR=2001
DGENRE=Country
TTITLE0=Winter Wonderland
TTITLE1=Christmas In Dixie
TTITLE2=Silver Bells
TTITLE3=I´ll Be Home For Christmas
TTITLE4=Here Comes Santa Claus
TTITLE5=Blue Christmas
TTITLE6=White Christmas
TTITLE7=Santa Claus Is Coming To Town
TTITLE8=Rudolph The Red-Nosed-Reindeer
TTITLE9=Silent Night >Duett with Chris London<
EXTD=
EXTT0=
EXTT1=
EXTT2=
EXTT3=
EXTT4=
EXTT5=
EXTT6=
EXTT7=
EXTT8=
EXTT9=
PLAYORDER=
